<?xml version="1.0" encoding="UTF-8" standalone="no"?>
<svg
   xmlns:dc="http://purl.org/dc/elements/1.1/"
   xmlns:cc="http://creativecommons.org/ns#"
   xmlns:rdf="http://www.w3.org/1999/02/22-rdf-syntax-ns#"
   xmlns:svg="http://www.w3.org/2000/svg"
   xmlns="http://www.w3.org/2000/svg"
   viewBox="0 0 1034.6458 425.1969"
   id="svg2"
   height="425.1969"
   width="1034.6458"
   version="1.1">
  <metadata
     id="metadata42">
    <rdf:RDF>
      <cc:Work
         rdf:about="">
        <dc:format>image/svg+xml</dc:format>
        <dc:type
           rdf:resource="http://purl.org/dc/dcmitype/StillImage" />
      </cc:Work>
    </rdf:RDF>
  </metadata>
  <defs
     id="defs40" />
  <g
     id="g4">
    <g
       id="g6">
      <path
         id="path8"
         style="fill:#ef7d00;fill-rule:evenodd"
         d="M 513.7213,14.6741 C 707.444,26.6317 856.2255,89.4918 846.0344,155.076 835.8435,220.6603 670.5387,264.1333 476.8161,252.1756 283.0933,240.2181 134.3118,177.3581 144.5029,111.7738 154.6938,46.1896 319.9986,2.7166 513.7213,14.6741 Z m 40.448,25.9617 C 706.0897,75.2654 802.8745,144.8813 770.3446,196.1273 737.8146,247.3733 588.2883,260.8436 436.368,226.214 284.4476,191.5844 187.6625,121.9685 220.1925,70.7225 252.7224,19.4764 402.249,6.0062 554.1693,40.6358 Z" />
      <path
         id="path10"
         style="fill:#164194;fill-rule:evenodd"
         d="m 692.7174,55.1778 1.5656,52.8477 -2.8704,0 c -0.9133,-2.3352 -1.6526,-4.0966 -2.1742,-5.2846 -2.9574,-7.702 -5.3926,-13.3963 -7.2626,-17.1655 -3.3489,-6.7595 -8.1323,-12.9044 -14.4383,-18.517 -4.784,-4.2197 -9.6982,-7.3333 -14.7864,-9.2586 -5.1315,-1.9255 -10.8722,-2.8678 -17.2649,-2.8678 -9.6109,0 -17.9609,1.9664 -25.0059,5.8584 -6.2189,3.4413 -12.003,8.3982 -17.352,14.83 -5.3926,6.4318 -9.7415,13.765 -13.1774,21.9994 -4.8271,11.6348 -7.2623,24.8261 -7.2623,39.6153 0,12.536 1.6526,23.8839 4.9578,33.9208 3.3485,10.078 8.1756,18.5173 14.5686,25.3179 11.742,12.6587 27.3107,18.9678 46.707,18.9678 9.6977,0 18.3955,-1.5976 26.1366,-4.7523 7.7409,-3.1544 13.7424,-7.6198 18.0043,-13.3552 4.9144,-6.6367 8.4804,-15.6087 10.6982,-26.8747 l 2.8704,0.4918 c -1.609,12.6587 -5.2623,22.6959 -10.9593,30.1519 -5.436,7.1283 -12.9161,12.5359 -22.4836,16.3049 -9.5675,3.7689 -20.6572,5.6534 -33.2255,5.6534 -11.6985,0 -22.9186,-1.6387 -33.6602,-4.9161 -17.0476,-5.2847 -30.3988,-14.8301 -40.0096,-28.6359 -9.6109,-13.7651 -14.3947,-30.2338 -14.3947,-49.3657 0,-14.625 2.7831,-28.1443 8.3934,-40.4756 5.6098,-12.3721 13.4377,-22.3271 23.4837,-29.8238 7.6977,-5.7765 16.9608,-10.3649 27.7024,-13.7651 10.7416,-3.4004 21.5268,-5.08 32.3121,-5.08 10.2631,0 21.1354,1.8434 32.6163,5.5715 l 10.4374,3.2364 c 2.0441,0.7375 3.8271,1.1063 5.349,1.1063 2.1311,0 3.8707,-0.8603 5.2189,-2.499 0.6086,-0.8195 1.3048,-2.1305 2.1744,-3.9739 l 3.1312,0.7373 z" />
      <path
         id="path12"
         style="fill:#164194;fill-rule:evenodd"
         d="m 492.8264,219.9302 -88.0254,0 0,-2.84 c 7.9481,-0.6885 13.521,-1.9363 16.6275,-3.7868 5.527,-3.2703 8.3134,-7.8318 8.3134,-13.6409 0,-3.4427 -1.233,-8.047 -3.7457,-13.8563 l -2.2839,-5.2928 -12.8361,-29.7777 -59.0187,0 -6.9888,17.4277 -3.3806,7.7887 c -4.0196,9.2517 -6.0296,16.524 -6.0296,21.8169 0,3.1413 0.731,6.0244 2.2385,8.7355 1.4616,2.668 3.426,4.8626 5.9383,6.5407 3.5172,2.2807 7.994,3.6147 13.4756,4.045 l 0,2.84 -60.0236,0 0,-2.84 c 4.7506,-0.2582 8.862,-1.334 12.4707,-3.2703 3.5629,-1.9367 7.0348,-5.0777 10.4151,-9.3379 2.8777,-3.4427 5.6642,-7.9177 8.405,-13.3399 2.6952,-5.4218 6.3037,-13.5547 10.7351,-24.3986 l 48.9688,-119.0251 7.6742,0 58.379,132.6229 c 4.3855,10.0264 7.8571,17.1694 10.4607,21.4727 2.5582,4.303 5.3903,7.5305 8.4053,9.7251 2.1469,1.5061 4.6134,2.668 7.3545,3.4855 2.7864,0.7747 6.9431,1.4632 12.4707,2.0656 l 0,2.84 z m -84.0512,-74.3584 -28.0936,-65.4077 -26.6769,65.4077 54.7705,0 z" />
      <path
         id="path14"
         style="fill:#a65c45;fill-rule:evenodd"
         d="m 561.7424,127.0339 c -1.5752,0.9196 -4.0853,2.5408 -8.745,3.2532 -4.6611,0.7099 -3.8562,1.4001 -12.1688,-1.9371 -8.3118,-3.3388 -24.8062,-10.0907 -28.6439,-10.8638 -3.8354,-0.7733 -10.5402,1.2072 -10.5402,1.2072 0.1701,-0.4853 -2.9279,-1.8435 -10.5026,-4.453 -7.5742,-2.611 -10.7146,-1.5496 -10.7146,-1.5496 0,0 -0.2447,-0.7083 -1.6102,-2.6932 -1.3648,-1.9849 -7.1295,-4.0278 -7.1295,-4.0278 10.0579,-6.644 9.98,-8.4536 10.3773,-9.381 0.3977,-0.9284 -3.303,-9.7385 -3.5041,-10.2391 -0.2011,-0.5006 -0.2106,-1.7322 -1.4926,-1.2943 -1.282,0.4411 -1.4748,1.1716 -1.2823,1.753 0.194,0.583 3.5081,8.23 3.3706,9.7019 -0.1385,1.4725 -3.9333,3.5322 -5.4227,4.8652 -1.491,1.334 -5.3799,3.965 -5.3799,3.965 -5.8162,-2.3732 -18.1403,0.1845 -18.1403,0.1845 1.4778,-2.5116 -1.8439,-3.2501 -1.8439,-3.2501 0,0 -1.2025,-2.1828 -1.1457,-3.6593 0.0561,-1.4738 -1.0077,-2.5028 -3.021,-3.0786 -2.0135,-0.5745 -0.2729,-1.4879 -1.8873,-2.8135 -1.6127,-1.3237 -3.2592,0.3583 -2.1722,1.9901 1.088,1.6312 2.4154,1.577 3.715,1.8504 1.2976,0.2705 1.7835,2.1521 1.3456,2.4078 -0.4382,0.2558 0.3059,2.9125 0.3059,2.9125 l -3.5257,0.5105 c 0,0 -5.6257,-3.5137 -10.3368,-7.9763 -4.7101,-4.4629 -16.7663,-25.8603 -16.7663,-25.8603 L 402.3323,45.3891 c 0,0 -8.31,-17.1949 -10.9912,-20.3707 -2.6813,-3.1742 -2.4638,-0.2101 -2.4638,-0.2101 0,0 14.7568,27.8564 16.5316,30.1192 1.7726,2.2613 17.2259,30.6392 21.1252,35.7792 3.9042,5.1396 12.2931,12.7082 12.2931,12.7082 -1.804,0.3175 -4.1637,1.9857 -4.6447,2.3383 -0.5894,0.2723 -3.3855,1.6141 -4.0855,2.7585 0,0 -10.3177,-6.4426 -17.5463,-9.6414 -7.2284,-3.1964 -47.897,-16.8534 -51.0719,-18.296 -3.1747,-1.4456 -43.148,-14.5804 -43.148,-14.5804 0,0 -4.4195,-0.5109 0.0112,1.6419 4.4334,2.1529 29.2047,9.7376 29.2047,9.7376 l 33.2112,11.1063 c 0,0 30.6168,10.5616 36.7303,14.2051 6.1113,3.6451 10.6878,7.7714 10.6878,7.7714 l -1.2027,2.25 c 0,0 -3.8958,-0.8167 -4.3327,-0.5617 -0.4392,0.2565 -3.2026,-0.2956 -3.4487,-1.1799 -0.2482,-0.8873 -0.001,-1.7522 -2.3138,-2.6685 -2.314,-0.9155 -5.0424,-0.0433 -3.2555,1.1787 1.7887,1.2238 3.3741,0.1955 3.988,1.5871 0.6131,1.3932 2.0268,2.218 4.2452,2.3638 2.2214,0.1466 5.3492,1.2053 5.3492,1.2053 0,0 0.6962,2.2713 4.6472,1.6136 0,0 -5.3642,7.7688 -2.5251,11.8801 0,0 -4.4288,2.2248 -6.6157,3.0381 -2.1858,0.8126 -5.7459,3.0468 -7.9728,2.9552 -2.2258,-0.0922 -13.29,-3.2146 -14.1415,-3.4137 -0.8479,-0.1988 -1.9677,-0.163 -2.7889,0.6237 -0.8169,0.7876 1.0304,0.9463 1.7563,1.1404 0.7262,0.194 13.4879,3.7142 14.9304,3.5683 1.4409,-0.1458 4.1467,0.1297 15.3646,-5.6474 0,0 2.3512,4.0358 5.1602,5.1776 2.8093,1.142 3.8418,1.3903 3.8418,1.3903 0,0 -1.9818,1.9291 0.9964,7.2232 2.9784,5.2929 4.6312,7.4948 5.3815,7.4428 0,0 -3.8036,4.1544 -3.1189,6.767 0.6845,2.614 8.7734,14.2731 12.7532,20.141 3.9778,5.8679 3.0405,5.2549 1.3975,8.2254 -1.6465,2.9693 -4.39,4.4152 -5.9644,5.3344 -1.5763,0.9202 -4.6749,2.1882 -3.6304,2.9705 1.0442,0.7821 2.913,2.0068 4.3743,-0.3125 1.46,-2.3199 5.01,-3.7744 6.5822,-5.3103 1.57,-1.5362 5.1664,-3.4809 -1.328,-14.9111 -6.4983,-11.4305 -10.5992,-15.9905 -10.4642,-16.7644 0.1347,-0.774 1.8229,-2.2231 2.7011,-1.6531 0.8767,0.5708 15.0057,14.6527 22.4413,18.7333 0,0 -4.7474,6.2487 -4.3914,7.7403 0.3583,1.4914 3.0665,5.0107 5.0277,5.9528 1.9585,0.942 9.8471,4.8369 11.5234,5.4802 1.6762,0.6447 26.041,13.4649 27.1513,14.2088 1.1073,0.7435 12.2402,12.8149 12.7048,13.1629 0.4649,0.3482 -0.4188,1.7894 1.7878,1.2231 2.2039,-0.5664 1.6827,-1.189 0.1165,-2.1298 -1.566,-0.9393 -9.9634,-11.08 -10.6553,-12.53 -0.6883,-1.4528 -1.6147,-2.1467 -4.5503,-3.5264 -2.9305,-1.3786 -24.8428,-14.7559 -34.7195,-17.9524 0,0 -5.0069,-1.3008 -2.9844,-2.5871 2.0236,-1.2837 7.3652,-2.6498 9.0774,-3.2364 0,0 9.8089,6.9968 39.4566,16.4235 0,0 -0.87,10.5532 6.6751,14.8031 0,0 1.5684,0.4748 -0.4575,-1.7425 -2.0246,-2.2164 -4.5702,-8.1492 -2.2995,-11.1755 0,0 24.0905,9.1169 31.9257,5.0074 l 5.2287,-2.6437 0.0116,0.009 0.0937,-0.0633 0.1069,-0.0538 -0.0116,-0.009 4.6148,-3.1031 c 7.1379,-4.6318 -3.5572,-21.5691 -3.5572,-21.5691 4.8216,-1.1143 13.4102,1.2905 16.4848,2.894 3.0752,1.6047 2.5572,0.5167 2.5572,0.5167 -5.4423,-5.4775 -21.3849,-6.2154 -21.3849,-6.2154 -10.4711,-20.6221 -19.7549,-27.9256 -19.7549,-27.9256 1.0925,-1.0507 3.8031,-4.3856 5.9816,-5.5551 2.181,-1.1677 3.511,2.2797 3.511,2.2797 3.5725,6.8769 20.9317,22.9123 22.6376,25.0059 1.7065,2.0972 2.6329,2.7911 4.7264,3.4236 2.0914,0.6329 16.2664,7.4006 17.4829,8.544 1.2166,1.1448 2.0874,1.5634 3.2108,0.1873 1.1219,-1.3769 -1.149,-0.9765 -1.6138,-1.3247 -0.4646,-0.348 -17.1995,-9.1489 -18.178,-9.9676 -0.9786,-0.8207 -17.1994,-18.3956 -17.9565,-19.5768 -0.7576,-1.1796 -5.6257,-6.8379 -6.7952,-8.2406 -1.172,-1.4029 -6.116,-3.6168 -8.3096,-4.0368 -2.1955,-0.4176 -12.1593,1.9222 -12.1593,1.9222 -5.2019,-5.3848 -24.5833,-16.4002 -25.3312,-17.0462 -0.7454,-0.6475 1.6372,-1.575 2.8168,-1.5682 1.1776,0.008 7.5115,3.2639 23.8593,8.9441 16.3463,5.6787 19.7102,3.5599 22.2114,2.7193 2.4996,-0.8413 5.1222,-2.9904 8.7843,-3.6609 3.6602,-0.6706 2.055,-2.0492 1.0109,-2.8313 -1.0445,-0.7823 -3.331,1.0935 -4.9076,2.0139 z" />
      <path
         id="path16"
         style="fill:none;stroke:#000000;stroke-width:0.7087;stroke-linecap:butt;stroke-linejoin:miter;stroke-dasharray:none"
         d="m 494.6255,104.2194 c 30.2043,0 54.69,19.4188 54.69,43.3718 0,23.9531 -24.4857,43.3718 -54.69,43.3718 -30.2042,0 -54.6899,-19.4187 -54.6899,-43.3718 0,-23.953 24.4857,-43.3718 54.6899,-43.3718 z" />
      <path
         id="path18"
         style="fill:none;stroke:#000000;stroke-width:0.7087;stroke-linecap:butt;stroke-linejoin:miter;stroke-dasharray:none"
         d="m 495.9439,79.113 c 44.642,0 80.8314,30.4523 80.8314,68.0159 0,37.5636 -36.1894,68.0159 -80.8314,68.0159 -44.6417,0 -80.8313,-30.4523 -80.8313,-68.0159 0,-37.5636 36.1896,-68.0159 80.8313,-68.0159 z" />
      <path
         id="path20"
         style="fill:#000000;fill-rule:evenodd;stroke:#000000;stroke-width:0.56690001;stroke-linecap:butt;stroke-linejoin:miter;stroke-dasharray:none"
         d="m 501.8909,216.5821 -0.0688,-19.1935 3.6667,-0.014 -7.4023,-19.1656 -7.2635,19.2215 3.6656,-0.014 0.0688,19.1935 7.3335,-0.0279 z" />
      <path
         id="path22"
         style="fill:#13110e;fill-rule:evenodd"
         d="m 506.9001,167.5996 c -2.1328,2.2169 -4.462,3.8797 -6.9749,4.9884 -2.5126,1.1083 -5.2336,1.6628 -8.1635,1.6628 -5.3932,0 -9.6712,-1.709 -12.8339,-5.1271 -2.5616,-2.7943 -3.8486,-5.9003 -3.8486,-9.3412 0,-3.06 1.0418,-5.8199 3.138,-8.2792 2.0959,-2.4712 5.2342,-4.6304 9.3895,-6.501 -2.3905,-2.5633 -3.9838,-4.6533 -4.7807,-6.2586 -0.7968,-1.5933 -1.2013,-3.1408 -1.2013,-4.6301 0,-2.9792 1.2379,-5.5658 3.7264,-7.7596 2.4761,-2.2056 5.6016,-3.3023 9.3771,-3.3023 3.5915,0 6.5454,1.0392 8.8378,3.1175 2.2921,2.0784 3.4322,4.5842 3.4322,7.494 0,4.7228 -3.3341,8.7641 -10.0145,12.1011 l 9.5363,11.27 c 1.0908,-1.9863 1.9366,-4.284 2.5373,-6.9052 l 6.6926,1.3626 c -1.1523,4.3186 -2.7088,7.852 -4.6823,10.6115 2.4146,3.0138 5.1605,5.5426 8.2126,7.598 l -4.339,4.8265 c -2.5988,-1.5588 -5.2708,-3.8798 -8.0411,-6.9281 z m -13.2383,-25.7613 c 2.8193,-1.5704 4.6335,-2.9327 5.4669,-4.1105 0.8336,-1.1778 1.2503,-2.4826 1.2503,-3.9144 0,-1.6977 -0.5763,-3.0832 -1.7161,-4.157 -1.1401,-1.0738 -2.5741,-1.6166 -4.278,-1.6166 -1.753,0 -3.2236,0.5312 -4.3883,1.5934 -1.1645,1.0624 -1.7527,2.3672 -1.7527,3.9146 0,0.762 0.2086,1.5817 0.6372,2.4248 0.417,0.8543 1.042,1.7552 1.8876,2.702 l 2.8931,3.1637 z m 9.1199,21.0039 -11.7919,-13.8677 c -3.5061,1.9514 -5.8714,3.7641 -7.0852,5.4386 -1.2257,1.6741 -1.8385,3.3253 -1.8385,4.9651 0,1.9976 0.8456,4.076 2.5495,6.2354 1.6917,2.1592 4.094,3.2332 7.1954,3.2332 1.9367,0 3.947,-0.5545 6.0061,-1.6744 2.0715,-1.12 3.7261,-2.5634 4.9646,-4.3302 z" />
      <path
         id="path24"
         style="fill:#000000;fill-rule:evenodd;stroke:#000000;stroke-width:0.56690001;stroke-linecap:butt;stroke-linejoin:miter;stroke-dasharray:none"
         d="m 573.6207,148.7331 -28.1645,0 0,3.6087 -28.1644,-7.2186 28.1644,-7.2197 0,3.6098 28.1645,0 0,7.2198 z" />
      <path
         id="path26"
         style="fill:#000000;fill-rule:evenodd;stroke:#000000;stroke-width:0.56690001;stroke-linecap:butt;stroke-linejoin:miter;stroke-dasharray:none"
         d="m 414.0006,150.11 28.1645,0 0,3.6088 28.1644,-7.2187 -28.1644,-7.2197 0,3.6099 -28.1645,0 0,7.2197 z" />
      <path
         id="path28"
         style="fill:#000000;fill-rule:evenodd;stroke:#000000;stroke-width:0.56690001;stroke-linecap:butt;stroke-linejoin:miter;stroke-dasharray:none"
         d="m 492.4548,79.4572 0.0689,17.6041 -3.6668,0.0128 7.4024,17.5784 7.2635,-17.6297 -3.6656,0.0128 -0.0689,-17.6041 -7.3335,0.0257 z" />
      <path
         id="path30"
         style="fill:white;fill-rule:evenodd"
         d="m 146.4885,279.2966 26.9006,0 c 5.2901,0 9.5851,0.6485 12.8439,1.934 3.2588,1.2971 5.9579,3.1456 8.0987,5.5566 2.1267,2.4236 3.6675,5.2265 4.6219,8.4333 0.9679,3.2069 1.4454,6.5975 1.4454,10.1836 0,5.6183 -0.7089,9.9755 -2.1408,13.0725 -1.4178,3.0965 -3.3949,5.6912 -5.9307,7.7843 -2.5364,2.093 -5.2495,3.4883 -8.1534,4.186 -3.9677,0.9548 -7.5669,1.4323 -10.785,1.4323 l -26.9006,0 0,-52.5826 z m 18.0794,11.8973 0,28.7145 4.4447,0 c 3.7905,0 6.4896,-0.3793 8.0987,-1.126 1.5955,-0.7589 2.8496,-2.0683 3.7633,-3.941 0.9133,-1.885 1.3631,-4.9207 1.3631,-9.131 0,-5.5693 -1.0086,-9.376 -3.0404,-11.4321 -2.0313,-2.0566 -5.3987,-3.0844 -10.1028,-3.0844 l -4.5266,0 z m 48.1836,-11.8973 48.4291,0 0,11.2361 -30.2679,0 0,8.3721 28.0593,0 0,10.7223 -28.0593,0 0,10.3547 31.168,0 0,11.8974 -49.3292,0 0,-52.5826 z m 62.1999,0 26.9005,0 c 5.2897,0 9.5851,0.6485 12.8435,1.934 3.2588,1.2971 5.9579,3.1456 8.0986,5.5566 2.1272,2.4236 3.668,5.2265 4.622,8.4333 0.9684,3.2069 1.4453,6.5975 1.4453,10.1836 0,5.6183 -0.7089,9.9755 -2.1407,13.0725 -1.4178,3.0965 -3.3944,5.6912 -5.9308,7.7843 -2.5363,2.093 -5.2494,3.4883 -8.1533,4.186 -3.9677,0.9548 -7.567,1.4323 -10.7846,1.4323 l -26.9005,0 0,-52.5826 z m 18.0789,11.8973 0,28.7145 4.4447,0 c 3.7905,0 6.49,-0.3793 8.0991,-1.126 1.595,-0.7589 2.8496,-2.0683 3.7633,-3.941 0.9129,-1.885 1.3632,-4.9207 1.3632,-9.131 0,-5.5693 -1.0091,-9.376 -3.0405,-11.4321 -2.0317,-2.0566 -5.3991,-3.0844 -10.1033,-3.0844 l -4.5265,0 z m 48.184,-11.8973 48.4291,0 0,11.2361 -30.2683,0 0,8.3721 28.0597,0 0,10.7223 -28.0597,0 0,10.3547 31.168,0 0,11.8974 -49.3288,0 0,-52.5826 z m 57.8637,0 55.0556,0 0,12.9986 -18.4881,0 0,39.584 -18.0794,0 0,-39.584 -18.4881,0 0,-12.9986 z m 66.7807,0 18.1612,0 0,52.5826 -18.1612,0 0,-52.5826 z m 32.5866,0 51.1286,0 0,10.5141 -32.8317,30.7589 34.0588,0 0,11.3096 -55.5462,0 0,-10.9182 32.4904,-30.4283 -29.2999,0 0,-11.2361 z m 99.3805,43.9168 -20.5059,0 -2.945,8.6658 -18.475,0 22.0471,-52.5826 19.8105,0 21.9513,52.5826 -18.952,0 -2.931,-8.6658 z m -3.8316,-11.383 -6.3942,-18.8984 -6.4222,18.8984 12.8164,0 z m 34.5497,-32.5338 26.9005,0 c 5.2901,0 9.5852,0.6485 12.8435,1.934 3.2588,1.2971 5.9579,3.1456 8.0991,5.5566 2.1267,2.4236 3.6675,5.2265 4.6215,8.4333 0.9684,3.2069 1.4454,6.5975 1.4454,10.1836 0,5.6183 -0.7089,9.9755 -2.1408,13.0725 -1.4178,3.0965 -3.3944,5.6912 -5.9307,7.7843 -2.5359,2.093 -5.2495,3.4883 -8.1534,4.186 -3.9672,0.9548 -7.5669,1.4323 -10.7846,1.4323 l -26.9005,0 0,-52.5826 z m 18.0794,11.8973 0,28.7145 4.4447,0 c 3.7905,0 6.4896,-0.3793 8.0986,-1.126 1.5955,-0.7589 2.8497,-2.0683 3.7634,-3.941 0.9128,-1.885 1.3631,-4.9207 1.3631,-9.131 0,-5.5693 -1.0091,-9.376 -3.0404,-11.4321 -2.0314,-2.0566 -5.3991,-3.0844 -10.1033,-3.0844 l -4.5261,0 z m 45.8927,14.4309 c 0,-8.5802 2.6589,-15.2632 7.9897,-20.037 5.3313,-4.7856 12.7481,-7.1727 22.265,-7.1727 9.7484,0 17.2611,2.3502 22.5377,7.038 5.2766,4.7004 7.9078,11.2853 7.9078,19.7429 0,6.1448 -1.1452,11.1754 -3.4496,15.1042 -2.3039,3.9289 -5.6441,6.9889 -9.9938,9.1801 -4.3629,2.1908 -9.7891,3.2803 -16.2932,3.2803 -6.5989,0 -12.0659,-0.9427 -16.402,-2.8276 -4.3222,-1.8971 -7.8396,-4.8837 -10.526,-8.972 -2.6856,-4.0757 -4.0356,-9.1918 -4.0356,-15.3362 z m 18.0794,0.0365 c 0,5.2999 1.1041,9.1188 3.2995,11.4321 2.2086,2.3132 5.2083,3.4762 8.9984,3.4762 3.8858,0 6.9127,-1.1382 9.0399,-3.4028 2.1403,-2.2768 3.2041,-6.3403 3.2041,-12.2275 0,-4.945 -1.1181,-8.5559 -3.3407,-10.8326 -2.2361,-2.2885 -5.2494,-3.4271 -9.067,-3.4271 -3.6539,0 -6.599,1.1629 -8.8075,3.4762 -2.2226,2.3132 -3.3267,6.1565 -3.3267,11.5055 z m 55.4779,26.2179 0,-52.5826 30.1593,0 c 5.5899,0 9.871,0.4283 12.816,1.2976 2.9586,0.8566 5.3448,2.4601 7.1582,4.7855 1.8134,2.338 2.7131,5.19 2.7131,8.5436 0,2.9132 -0.6953,5.4346 -2.086,7.5519 -1.3767,2.13 -3.2859,3.8433 -5.726,5.1652 -1.5408,0.8324 -3.6679,1.5301 -6.3539,2.0809 2.1543,0.6486 3.7222,1.285 4.7037,1.934 0.6547,0.4284 1.6227,1.3584 2.8908,2.766 1.2542,1.4079 2.0996,2.497 2.5223,3.2681 l 8.794,15.1898 -20.4516,0 -9.6665,-16.0343 c -1.2271,-2.0809 -2.318,-3.4271 -3.272,-4.0514 -1.3093,-0.808 -2.7954,-1.2116 -4.4451,-1.2116 l -1.595,0 0,21.2973 -18.1613,0 z m 18.1613,-31.212 7.6483,0 c 0.8183,0 2.4269,-0.2446 4.7996,-0.722 1.1994,-0.2081 2.1814,-0.7589 2.9315,-1.6525 0.7636,-0.8932 1.1456,-1.9093 1.1456,-3.0596 0,-1.7016 -0.6004,-3.0114 -1.8003,-3.9171 -1.1994,-0.9179 -3.4491,-1.3706 -6.7626,-1.3706 l -7.9621,0 0,10.7218 z m 84.1375,22.5462 -20.5063,0 -2.945,8.6658 -18.4746,0 22.0467,-52.5826 19.8109,0 21.9509,52.5826 -18.9515,0 -2.9311,-8.6658 z m -3.8316,-11.383 -6.3942,-18.8984 -6.4222,18.8984 12.8164,0 z" />
    </g>
  
  </g>
</svg>
