<svg id="Camada_1" data-name="Camada 1" xmlns="http://www.w3.org/2000/svg" width="138.06431mm" height="78.50513mm" viewBox="0 0 391.36341 222.53422">
  <defs>
    <style>
      .cls-1 {
        fill: #d27a31;
      }

      .cls-2 {
        fill: #2064a9;
      }

      .cls-3 {
        fill: #6f311c;
      }

      .cls-4 {
        font-size: 119.43721px;
      }

      .cls-4, .cls-5 {
        fill: #fff;
        font-family: Amiri-Regular, Amiri;
      }

      .cls-5 {
        font-size: 74.64826px;
      }
    </style>
  </defs>
  <title>logo</title>
  <g>
    <ellipse class="cls-1" cx="195.68171" cy="73.0122" rx="195.68171" ry="73.0122"/>
    <ellipse class="cls-2" cx="217.66523" cy="76.23384" rx="57.44553" ry="153.82491" transform="translate(77.96539 271.33674) rotate(-78.61059)"/>
    <g>
      <path class="cls-3" d="M218.54776,118.59214l-2.77365-.317-.14556.20646,3.502,2.96312-.06669.1337-2.40379-.56845c-.09412.72952-.19033,1.41395-.26939,2.1003-.1869,1.6222-.33535,3.24934-.55545,4.867-.27267,2.00419-1.42269,3.63105-2.48622,5.274-.40383.62384-1.12621.59814-2.25249.0836.47365-.67645.91334-1.35885,1.40786-1.99987a8.34945,8.34945,0,0,0,1.87455-5.28964,7.67475,7.67475,0,0,1,.193-1.8647,3.47854,3.47854,0,0,0-.70013-3.21722,12.60859,12.60859,0,0,1-.789-1.24728l-1.568,2.02741-.129-.05725c.21885-1.38068.4377-2.76137.68147-4.29917l-1.98161,1.27589c.849-2.27683,1.63445-4.3431.06534-6.49107l-1.56812,3.59241c-.34-3.03623.86542-5.94664-.64662-8.78582l-2.01234,2.71224-.13628-.05216c.29059-1.50082.5635-3.00525.87794-4.50116a3.79467,3.79467,0,0,0-.6508-2.796l-1.52181,3.01066c0-1.358-.08774-2.56978.02322-3.76348a5.76758,5.76758,0,0,0-.585-3.86925,1.36821,1.36821,0,0,1,.21912-1.15814c1.63019-2.35934,3.30891-4.6859,4.97183-7.02314.09425-.13246.182-.26941.3054-.45271q-1.80445-2.23024-3.60652-4.456c-.77584-.95514-1.57109-1.8951-2.33351-2.86052a1.12367,1.12367,0,0,0-1.276-.46171q-4.22989.92382-8.48042,1.75349c-.68087.13163-.867.36189-.79976,1.06391a40.0725,40.0725,0,0,0,2.046,8.55662,4.25808,4.25808,0,0,1,.25391,1.22771L193.059,91.30037a3.69207,3.69207,0,0,0,.62257,3.189c.9476,1.24459,1.82656,2.54028,2.735,3.814l-.15119.13091-3.148-1.81618c-.29988,2.87575.96465,5.03275,3.14377,6.7896l-.17248.128-2.62709-.81175-.136.149,2.60777,3.36424-.06627.127-2.30155-1.04289c-.75211,1.57511-1.5574,3.09766-2.21637,4.67982a11.65991,11.65991,0,0,1-4.96364,5.40043c-.37019.22927-.73969.4596-1.06341.66077l-1.54537-1.35586c.46841-.205.79806-.36472,1.13888-.49606,2.56739-.98951,4.04422-2.99878,5.14306-5.36357.06892-.14832.124-.30373.20234-.44686,1.13259-2.07013,1.17569-2.8705.22893-5.17918l-1.97923,1.4057-.12526-.06878q.95954-2.12052,1.91911-4.241l-.13083-.1322-1.858,1.19737-.21891-.07041a12.54819,12.54819,0,0,0,1.82707-9.15929l-2.47428,2.31626c.77689-2.59939,2.50628-4.89662,2.27694-7.86568l-2.70222,1.11289-.10783-.11248c.5727-.77326,1.1154-1.57062,1.72582-2.31357a3.95349,3.95349,0,0,0,.98232-3.01376c-.07422-.78285.01969-1.58-.02458-2.36731a1.13608,1.13608,0,0,1,.82341-1.2369c2.546-1.09853,5.07527-2.23506,7.60943-3.36042.2484-.1103.4886-.23873.75692-.3707a7.57336,7.57336,0,0,0-4.36615-2.13259c-2.64515-.3048-5.25856-.87839-7.8861-1.33407-.26222-.04547-.52891-.06578-.80832-.09955a10.94079,10.94079,0,0,0-.07311,5.7845l-.93944-.8418c-.73009,1.69475-1.43592,3.33318-2.20492,5.11827l-.94006-1.57351c-3.12606,1.56057-6.34848,2.61873-9.94556,2.15864l-.17934-1.81516a22.50094,22.50094,0,0,0,4.44417-.06089,22.87813,22.87813,0,0,0,4.66347-1.76128c.48922-.22144.802-.82406,1.19548-1.25231l-.13214-.17051-1.36828.35089c.62225-.89276,1.1607-1.6653,1.80658-2.59195l-1.62287.2359,2.23668-2.71753-.17915-.18H181.479c.92265-1.5989,1.78521-3.17388,2.74432-4.6891a1.55382,1.55382,0,0,1,1.14522-.55343c1.67857-.00334,3.35727.09723,5.03609.15519.32863.01135.658.00163,1.09775.00163,0-1.19388.02381-2.35321-.02068-3.51a1.02965,1.02965,0,0,0-.44405-.645,5.98018,5.98018,0,0,1-2.54122-4.64881,1.77923,1.77923,0,0,0-.58674-1.11327,28.48823,28.48823,0,0,0-13.2171-6.51237c-8.51247-1.46179-15.99064.61081-22.30265,6.50073a10.48023,10.48023,0,0,0-1.93343,2.51991,5.33634,5.33634,0,0,0-.2125,5.51713,3.81654,3.81654,0,0,1-1.7686-3.31889,8.51793,8.51793,0,0,1,2.31052-5.53632c2.67235-3.32826,6.30923-5.187,10.25294-6.56148,9.55969-3.33177,18.24014-1.39375,26.27847,4.33043.1995.14207.40407.27724.60893.41169.01507.0099.0516-.01219.13825-.03576.12347-3.91685,2.24412-6.60794,5.57087-8.50968-.83679-1.68321-1.69688-3.31683-2.47193-4.989A44.76991,44.76991,0,0,1,186.94779,18.566a19.43667,19.43667,0,0,1,2.15785-8.15218c1.49061-2.70179,3.69562-4.37482,6.961-4.24131a3.64706,3.64706,0,0,1,2.97716,1.84628,3.1181,3.1181,0,0,1-.43288-.14022c-2.79711-1.571-5.36607-.369-7.10215,1.96192a13.73759,13.73759,0,0,0-2.42238,6.68493c-1.25248,9.8987,1.26167,18.99,6.06649,27.58925a1.18241,1.18241,0,0,0,1.49047.68191,1.39631,1.39631,0,0,1,.41-.03661c1.77455.05042,3.55569.03268,5.32019.1932a10.6487,10.6487,0,0,1,2.14255.78236,4.6951,4.6951,0,0,0,1.471.30275c1.94918-.0223,3.8976-.108,5.84637-.16823.21705-.0067.43451-.00089.766-.00089L211.51427,43.091c1.36158-.65681,2.67159-1.3405,4.0262-1.92273a1.47732,1.47732,0,0,0,1.02856-1.69775,9.87369,9.87369,0,0,0-3.22057-6.75922l1.33365-1.34486a11.47686,11.47686,0,0,1,3.31768,6.5376c.0797.67551.18965,1.348.25124,2.025.05112.562.26219.89342.89028.95607a12.12681,12.12681,0,0,1,1.62061.40471l-3.0322,1.70192,2.67771,1.13161-2.206.38314c1.45581,2.92584,3.2708,5.36542,6.70791,6.40552.38352-2.40014.746-4.66849,1.12061-7.01292,2.26544.19157,3.76366-1.30641,5.59631-2.48672l-.41429,2.1042a3.06986,3.06986,0,0,0,3.29727-.93886c.57022-.68355,1.19227-1.32482,1.7911-1.985l.25814.0949-.468,2.72855c1.44064.01872,2.85977.377,3.84532-1.13552a21.53135,21.53135,0,0,1,2.015-2.29094l-.2649,2.83949c1.14-.23708,2.27257-.25346,2.932-1.39044a33.84292,33.84292,0,0,0,2.33872-4.01235,7.35293,7.35293,0,0,0,.3626-3.35249c-.083-.88156.09515-1.26306.92492-1.40773a4.617,4.617,0,0,0,.56927-.18978c1.17953,3.98184-.94023,6.98651-2.91933,10.09917l1.65409,1.08728-3.8766,1.025,2.47421,1.31982c-2.06707.18225-3.95835-.50366-5.91433.22436l1.87758,2.35985-.115.16964c-1.07149-.57441-2.18662-1.08293-3.20274-1.741a4.06157,4.06157,0,0,0-3.56253-.42429l2.34224,2.429-.09685.14224-6.24893-2.55474c.06825.32274.104.5213.15257.71676.38648,1.55719.79081,3.11023,1.15749,4.67193a2.71327,2.71327,0,0,0,1.49374,1.94465c3.51074,1.68988,7.03259,3.35721,10.54191,5.05.61324.29579.97583-.05528,1.38967-.38124q3.74505-2.94971,7.50266-5.88375c.4522-.3519.95573-.6393,1.5215-1.01326.74751.71134,1.45508,1.4699,2.25785,2.11209a2.84193,2.84193,0,0,0,1.45209.57823c1.02721.08764,2.06744.02628,3.36628.02628l-2.81736,1.98876c.99194,1.09442,1.92659,2.16228,2.91194,3.18223a1.702,1.702,0,0,0,.89594.33511,39.49273,39.49273,0,0,1,3.97724.80187l-3.2038,1.24977a25.65588,25.65588,0,0,0,1.80687,2.00032,2.69993,2.69993,0,0,0,1.259.51313,38.48576,38.48576,0,0,1,4.06868.90625L267.332,66.535c.60571.76471,1.12759,1.49357,1.73163,2.14832a1.851,1.851,0,0,0,.94927.3996c1.41523.29717,2.83762.56092,4.26645,1.003l-3.39161.989c1.11463,2.94268,4.04193,3.44806,6.41226,4.85006h-2.847l-.05733.25344c1.37718,1.70085,3.71633,1.40812,5.56512,2.52122l-3.1775.2673,4.21712,2.74707-.05383.14835c-.84436-.13759-1.68872-.27518-2.61366-.42592a3.83532,3.83532,0,0,0,1.08791,2.5947q3.40985,3.94089,6.8171,7.884c.194.22455.37517.45991.61828.75914L285.52088,93.805,276.45673,83.1735c-.11386.5413-.19448.92446-.32174,1.52933-.78213-1.78271-1.48419-3.38292-2.18626-4.98312l-.20132.04639v2.54612c-1.78068-2.56193-2.41165-5.70356-4.69144-8.21428v2.81169l-.30147.06723q-1.32267-3.5307-2.64537-7.06138l-.221-.01484c-.1574.90014-.31481,1.80028-.506,2.8936-1.19181-2.404-.94416-5.18771-2.87093-7.29449l-.56706,3.12627a26.099,26.099,0,0,0-5.88875-11.09869L252.59917,63.953c1.26831.9539,2.5204,1.87643,3.752,2.825a81.978,81.978,0,0,1,18.86613,19.72763,37.19509,37.19509,0,0,1,5.85851,14.95318,20.79919,20.79919,0,0,1,.2283,2.6826,1.10573,1.10573,0,0,0,1.01946,1.23164c.93345.19052,1.84657.47844,2.81175.736l-.26917,1.12915-3.55641-.63543a11.02481,11.02481,0,0,1-5.72005,9.20295l1.93979,2.26505-.86191.92667c-.72688-.66951-1.3889-1.31752-2.09742-1.91126a1.41294,1.41294,0,0,0-.92226-.39933c-1.78858.27495-3.56539.62473-5.44625.96808l1.0613,3.18217c-.88554.58019-1.02807.55393-1.45582-.31231-.39828-.80654-.7191-1.65522-1.17535-2.42674a1.564,1.564,0,0,0-.9803-.71053c-9.25369-1.09954-17.59933-4.6547-25.54137-9.25835a121.84033,121.84033,0,0,1-21.90954-16.20908c-4.791-4.4545-9.33823-9.16552-13.99085-13.76542-.42364-.41883-.82286-.86181-1.23341-1.29358l-.20659.1632c1.27758,1.84469,2.50632,3.72474,3.84153,5.5277,4.73079,6.38816,10.65513,11.58384,16.94635,16.39609,2.74308,2.09822,5.55282,4.11122,8.33127,6.16427.21448.15848.42083.32771.82377.64267l-.993-.23081c-.1662,1.37687-.364,2.71767-.4619,4.06559a1.1245,1.1245,0,0,0,.5099.877c1.56559.79224,3.15855,1.53453,4.76615,2.24054a3.41163,3.41163,0,0,0,1.29158.18722c1.49782.02136,2.99614.00822,4.53821.18029l-3.0202,1.61061c1.60653.901,3.05882,1.6384,4.90084,1.41485a38.08394,38.08394,0,0,1,4.48943-.03526l-3.08275,1.76555c2.80818,1.82157,6.184,1.45736,9.30705,2.646l-3.35265.82486-.01012.168,5.28861,1.18858-.01526.14626-2.57583.82023,10.30785,8.72983-1.10021,1.3231-11.38015-9.41783-.30509.193.88513,3.66569c-2.15611-2.0923-3.14992-5.06118-6.1388-6.32937l.70466,3.36778-.16654.0935c-.7716-1.12441-1.57654-2.22817-2.30545-3.379a6.76843,6.76843,0,0,0-3.02934-2.41295v3.33679a26.755,26.755,0,0,1-1.71816-2.97913,5.05771,5.05771,0,0,0-2.84422-2.5812v3.02367l-.2286.0783c-.53191-1.0126-1.10065-2.00828-1.5861-3.04222a5.04806,5.04806,0,0,0-2.86015-2.35425v3.17943l-.20582.066c-.50957-.90886-1.02624-1.81393-1.52734-2.72733-1.37149-2.49991-.54471-2.07106-3.6244-2.00664a1.2475,1.2475,0,0,1-1.4348-.98679q-2.09789-6.27208-4.26317-12.52187a3.21122,3.21122,0,0,0-.91681-1.379c-1.54477-1.26938-3.14383-2.47535-4.7501-3.66881a.92732.92732,0,0,0-.83212-.08047c-2.17746,1.42605-4.32684,2.894-6.5393,4.38853a20.59471,20.59471,0,0,0,2.821,5.055c1.13358,1.537,2.31144,3.042,3.40342,4.66954l-2.92175-1.69113a5.50989,5.50989,0,0,0,1.94443,3.27393c1.31022.97744,2.56646,2.02563,3.846,3.04322l-.10068.18711-3.58521-1.01153-.21917.1361a16.13014,16.13014,0,0,0,1.82957,3.32563,17.28965,17.28965,0,0,0,3.1545,2.27844ZM194.07615,63.35549l-.19918.05c.221.91785.39758,1.849.67283,2.75063a11.26719,11.26719,0,0,0,2.51457,4.27238c2.294,2.53109,5.097,2.64885,8.17388,1.71629a119.79628,119.79628,0,0,0,13.97718-5.39045,1.43917,1.43917,0,0,0,.91178-1.2415c.18541-1.3746.42972-2.74172.60033-4.11792.33128-2.67233.6899-5.34366.91919-8.02528.17022-1.99083-.41742-2.89676-2.30151-3.55937-1.963-.69038-3.96849-1.28225-5.98855-1.78768-1.36519-.34159-2.78773-.459-4.27372-.69063.0992.16612.11655.23825.15452.25118.15362.05231.3129.08922.4713.12679a27.36244,27.36244,0,0,1,6.82083,2.39314c1.9032,1.03145,2.38248,2.23339,1.73733,4.28175-.05717.18156-.12568.35962-.188.53962a23.335,23.335,0,0,1-13.29237,14.15914,6.30612,6.30612,0,0,1-5.79633-.25531,10.464,10.464,0,0,1-3.53831-3.36165C194.96991,64.779,194.5333,64.06019,194.07615,63.35549Zm82.65252,38.77268.09109-.13818c-.12456-.10338-.24286-.21544-.37463-.30891q-9.52434-6.75649-19.05046-13.51054c-3.6603-2.59717-7.31049-5.1391-10.32108-8.57652q-9.29866-10.6171-19.61086-20.31088c-.63741-.59686-1.28679-1.18122-1.93062-1.77139a2.32051,2.32051,0,0,0,.55494,1.00489q11.37259,13.5951,21.606,28.04814a4.46067,4.46067,0,0,0,1.50834,1.32142q11.12438,5.81291,22.2843,11.55928C273.22929,100.34738,274.9808,101.23434,276.72867,102.12817Zm2.78785-1.64431.28059-.05554c-.58646-1.85719-1.08145-3.74863-1.77686-5.565-1.93643-5.05789-5.1102-9.36228-8.637-13.42494a96.49534,96.49534,0,0,0-17.20348-15.42887,80.53784,80.53784,0,0,0-22.64393-11.34036c-.56374-.17608-1.13345-.33347-1.70037-.49955a21.5573,21.5573,0,0,0,2.92315,1.72511A122.82491,122.82491,0,0,1,263.82955,79.4206,87.61288,87.61288,0,0,1,276.498,95.15717C277.56032,96.89922,278.51338,98.70647,279.51652,100.48386Zm-24.88025,7.3569c-16.74013-8.6077-33.09863-17.74367-46.67373-31.0097a126.817,126.817,0,0,0,24.65225,22.27958c9.1605,6.35037,18.83431,11.7462,29.51108,15.22557-6.86339-3.60986-13.70446-7.25382-20.26269-11.40791Zm-53.15921-47.999.12216-.097-1.314-2.89028,2.65391,1.52033-1.52486-2.93427.16109-.10362,2.05394,1.00173-1.39691-2.47611,2.86578,1.61669c-.525-1.03309-.93418-1.83836-1.45189-2.85713l2.58535,1.14283.09838-.12651-1.75889-2.36019,3.77691,1.28428.07035-.12643-2.13922-2.31627.15666-.17834c2.13128.85672,4.27264,1.69007,6.38824,2.5831a1.56011,1.56011,0,0,0,1.97658-.38742c-.35832-.32382-.6512-.76957-1.058-.92639q-3.64773-1.40621-7.34246-2.69233a4.599,4.599,0,0,0-4.71343.89794,30.647,30.647,0,0,0-3.6049,3.46644,17.74164,17.74164,0,0,0-2.41481,3.77275c-1.77158,3.72317,1.40209,8.78406,5.063,10.14565a1.364,1.364,0,0,0,1.88367-.85254,28.3711,28.3711,0,0,1-2.53782-2.05907,26.08667,26.08667,0,0,1-1.96059-2.48722l.1756-.1435,2.40305,1.12546-1.73962-3.09338.763.37114-.3595-1.32648Zm66.00029,53.56038.16678-.1534-9.77438-12.5967-.17934.11372c.22608.38562.44492.7756.67945,1.15612a63.49414,63.49414,0,0,1,3.56255,5.86146C263.15234,110.35162,265.4257,111.73328,267.47735,113.4021ZM199.6401,76.42319l-7.84376,3.04913a1.03608,1.03608,0,0,0,1.44654.69139c.62134-.21329,1.24564-.41812,1.86744-.63009,1.751-.59691,3.50137-1.1956,5.32408-1.81821ZM228.19841,45.6461a1.20975,1.20975,0,0,0-.10332.29085c-.0001,1.65859-.01861,3.31769.01784,4.97558.02212,1.00624.45791,1.31154,1.54815,1.20082C229.59784,49.26978,228.99794,46.51727,228.19841,45.6461ZM185.27709,68.31541c.34078.30739.58184.71878.85937.74445,2.20075.2035,4.40843.33362,6.6615.48957a1.38451,1.38451,0,0,0-1.31278-1.21167C189.52062,68.27584,187.55281,68.31541,185.27709,68.31541Zm36.32926-.75085,6.81617,3.32467.08064-.12408-5.71242-4.54471Zm-5.05429-21.13107c-.30852-1.19357-.617-2.38714-.9489-3.671l-1.63238.747C214.79569,44.58462,215.11626,45.90922,216.55206,46.43349ZM237.37348,82.1326l.08983-.19388a51.45432,51.45432,0,0,0-10.15176-4.419Zm-9.53594,23.33393-.20171.07895c.39453,1.72376.78906,3.44752,1.19681,5.22908l1.097-.41912Zm26.20723-49.59089.15028.13186,2.236-1.73968-.984-1.01493Z" transform="translate(-21.98353 -3.22164)"/>
      <path class="cls-3" d="M227.83754,105.46653l2.09213,4.88891-1.097.41912c-.40775-1.78156-.80228-3.50532-1.19681-5.22908Z" transform="translate(-21.98353 -3.22164)"/>
    </g>
    <text class="cls-4" transform="translate(66.93195 115.0409) scale(1.01125 1)"><tspan xml:space="preserve">A   C</tspan></text>
    <text class="cls-5" transform="translate(170.54523 106.26648) scale(1.01125 1)">&amp;</text>
  </g>
</svg>
